<?xml version="1.0" standalone="no"?>
<!DOCTYPE svg PUBLIC "-//W3C//DTD SVG 20010904//EN"
 "http://www.w3.org/TR/2001/REC-SVG-20010904/DTD/svg10.dtd">
<svg version="1.0" xmlns="http://www.w3.org/2000/svg"
 width="860.000000pt" height="842.000000pt" viewBox="0 0 860.000000 842.000000"
 preserveAspectRatio="xMidYMid meet">

<g transform="translate(0.000000,842.000000) scale(0.100000,-0.100000)"
fill="#000000" stroke="none">
<path d="M4506 7990 c-688 -4 -773 -7 -731 -19 63 -18 159 -85 206 -141 44
-53 1071 -1840 1066 -1855 -2 -5 -123 -80 -269 -165 -146 -85 -264 -157 -263
-159 2 -2 409 0 903 4 l899 8 442 770 c243 423 440 771 439 773 -2 1 -120 -65
-263 -148 -143 -83 -267 -152 -275 -154 -11 -3 -90 128 -275 452 -298 524
-321 560 -370 593 -68 46 -116 51 -435 49 -162 -2 -645 -5 -1074 -8z m1092
-326 c34 -69 65 -145 68 -168 8 -58 -10 -109 -52 -146 -28 -24 -44 -30 -80
-30 -51 0 -76 11 -116 48 l-28 25 10 -34 c46 -158 -75 -309 -248 -309 -78 0
-140 29 -199 93 -43 46 -157 259 -146 271 4 3 19 -5 34 -20 l27 -26 328 172
c181 95 330 173 331 174 2 1 -1 16 -6 33 -9 29 -6 43 8 43 4 0 35 -57 69 -126z
m-2 -599 c55 -102 61 -136 16 -91 l-26 25 -169 -87 c-179 -92 -222 -122 -233
-166 -8 -32 16 -73 52 -86 57 -22 92 -12 265 78 l170 87 -6 38 c-4 29 -2 38 7
35 16 -6 118 -199 111 -211 -3 -5 -19 4 -35 20 l-29 28 -132 -69 c-73 -38
-165 -87 -205 -108 l-73 -40 6 -39 c4 -21 3 -39 -2 -39 -4 0 -26 34 -48 75
-38 70 -39 75 -22 87 17 12 14 15 -27 35 -101 50 -116 191 -28 265 17 14 103
63 191 109 l159 82 -9 31 c-24 82 5 57 67 -59z m261 -500 c52 -101 59 -133 19
-96 -12 12 -25 21 -28 21 -8 0 -241 -270 -236 -275 3 -3 279 39 323 50 17 4
20 11 17 45 -3 25 0 40 7 40 13 0 93 -155 84 -163 -3 -4 -21 6 -39 21 l-34 28
-327 -53 c-467 -75 -501 -73 -550 38 -1 3 15 20 37 38 l40 32 13 -33 c8 -18
27 -45 42 -60 30 -30 70 -35 169 -22 47 7 49 9 225 213 156 181 176 209 170
231 -24 86 7 60 68 -55z"/>
<path d="M5476 7562 c-60 -32 -111 -63 -114 -70 -2 -7 12 -28 31 -47 28 -28
43 -35 73 -35 42 0 118 39 134 70 14 25 12 90 -3 117 -12 22 -13 22 -121 -35z"/>
<path d="M5113 7373 l-202 -107 14 -27 c20 -37 69 -76 111 -88 74 -20 197 24
266 96 42 43 58 79 58 128 0 33 -27 105 -39 105 -3 -1 -97 -49 -208 -107z"/>
<path d="M3046 7910 c-180 -38 -386 -165 -508 -314 -44 -53 -266 -430 -808
-1372 -13 -23 -22 -45 -20 -47 19 -16 1556 -900 1567 -901 10 -1 196 312 509
852 272 470 494 857 494 861 0 5 -88 161 -196 347 -159 275 -206 349 -250 391
-171 164 -506 242 -788 183z"/>
<path d="M6550 5250 c-426 -248 -778 -450 -782 -450 -5 0 -8 -5 -8 -10 0 -6
222 -398 493 -871 l492 -860 420 3 c414 3 421 3 475 26 94 40 172 93 259 177
103 98 158 175 215 296 67 143 81 208 81 384 0 163 -12 225 -76 384 -29 74
-775 1372 -787 1370 -4 0 -356 -202 -782 -449z"/>
<path d="M460 5327 c0 -2 122 -75 270 -162 149 -88 270 -163 270 -167 0 -4
-129 -229 -286 -499 -210 -362 -288 -505 -296 -543 -14 -66 -4 -132 31 -198
22 -43 949 -1638 1053 -1813 17 -27 27 -42 24 -32 -33 101 -25 238 19 335 40
88 1049 1832 1060 1832 6 -1 129 -70 275 -154 146 -85 266 -153 268 -152 1 2
-201 352 -450 779 l-453 777 -892 0 c-491 0 -893 -2 -893 -3z m1693 -129 c29
-13 46 -26 43 -33 -2 -7 -34 -60 -70 -118 l-65 -106 23 -14 c31 -21 112 -47
144 -47 38 0 68 24 82 65 15 44 5 87 -27 126 -18 21 -23 33 -15 41 7 7 20 -3
42 -33 29 -40 31 -49 28 -105 -5 -77 -37 -124 -103 -149 -171 -66 -408 114
-365 276 31 114 148 154 283 97z m-331 -382 l283 -175 22 21 c40 37 43 13 5
-50 -30 -51 -41 -62 -57 -58 -18 5 -20 1 -17 -43 3 -40 -1 -53 -24 -81 -95
-112 -316 -61 -404 94 -50 87 -34 186 37 231 18 11 32 22 32 25 0 3 -42 30
-93 61 l-94 56 -25 -24 c-40 -41 -38 -12 4 55 22 34 41 62 43 62 2 0 132 -78
288 -174z m-117 -519 l140 -86 22 21 c38 36 38 11 0 -49 -26 -42 -41 -57 -56
-56 -17 2 -18 -2 -14 -36 10 -71 -55 -150 -129 -158 -122 -12 -174 120 -105
270 l26 57 -52 30 c-86 49 -152 34 -145 -33 2 -22 12 -38 33 -52 29 -19 30
-22 20 -59 -7 -22 -16 -41 -22 -43 -6 -2 -26 9 -44 25 -29 26 -33 36 -33 79 0
60 37 130 86 162 26 17 44 21 83 18 42 -3 72 -17 190 -90z m-411 -221 l26 -35
-25 -25 c-29 -29 -32 -64 -10 -110 12 -24 45 -50 134 -104 65 -40 122 -72 127
-72 4 0 18 10 31 22 39 36 27 0 -28 -90 -57 -92 -88 -113 -60 -40 8 22 -1 30
-159 126 -92 56 -171 102 -176 102 -4 0 -18 -10 -31 -22 -14 -13 -23 -17 -23
-9 0 16 69 131 78 131 4 0 18 -9 32 -20 37 -29 40 -25 18 29 -23 54 -20 83 13
124 11 15 22 27 24 27 1 0 14 -16 29 -34z m-284 -225 c13 -9 13 -11 0 -20 -20
-14 -67 -13 -112 3 l-36 13 -22 -39 c-12 -22 -18 -43 -14 -48 5 -4 128 -80
273 -169 l264 -162 22 21 c24 23 38 26 33 8 -6 -24 -103 -178 -112 -178 -4 0
-5 15 -2 34 l6 34 -272 167 -272 166 -18 -23 c-32 -42 -32 -58 0 -92 32 -33
56 -82 47 -96 -3 -5 -33 9 -67 30 -34 22 -65 40 -70 40 -4 0 -8 4 -8 10 0 8
200 339 222 367 8 10 55 -12 138 -66z"/>
<path d="M1921 5141 c-25 -25 -26 -33 -6 -70 14 -28 101 -111 115 -111 7 0 90
130 90 142 0 10 -95 47 -137 54 -34 5 -45 2 -62 -15z"/>
<path d="M1693 4740 c-47 -19 -57 -87 -20 -138 53 -71 187 -150 270 -159 58
-7 91 20 90 71 -1 20 -8 47 -16 60 -19 29 -257 176 -283 175 -11 0 -29 -4 -41
-9z"/>
<path d="M1602 4213 c-31 -80 -21 -128 35 -170 88 -67 169 -1 118 97 -12 23
-118 100 -138 100 -2 0 -9 -12 -15 -27z"/>
<path d="M5026 2750 c-340 -594 -446 -787 -439 -799 5 -9 205 -356 444 -771
l434 -755 6 240 c4 132 7 275 8 317 l1 78 603 2 604 3 48 30 c31 19 63 51 88
90 32 47 408 701 1040 1805 l31 54 -33 -24 c-74 -56 -119 -81 -181 -103 l-65
-22 -1067 -3 -1068 -3 -2 322 -3 322 -449 -783z m546 -350 c20 -6 47 -19 60
-29 22 -19 23 -19 45 5 12 13 30 24 40 24 16 0 18 -11 18 -110 0 -67 -4 -110
-10 -110 -5 1 -26 33 -45 73 -42 86 -81 117 -147 117 -95 0 -139 -52 -134
-162 2 -40 53 -92 149 -151 109 -67 175 -126 202 -183 18 -37 21 -58 18 -119
-3 -62 -8 -80 -33 -116 -43 -61 -102 -88 -191 -89 -54 0 -81 5 -116 23 l-46
23 -26 -23 c-51 -43 -56 -35 -56 92 0 64 4 115 9 115 5 0 21 -26 36 -57 45
-99 102 -143 186 -143 83 0 140 49 154 131 14 84 -27 136 -177 227 -97 59
-172 135 -188 190 -17 62 -12 125 13 172 26 50 56 75 113 95 47 17 77 18 126
5z m958 -405 l0 -394 30 -8 c63 -17 29 -28 -85 -28 -115 0 -148 11 -86 29 l31
9 -2 375 -3 376 -32 8 c-60 16 -35 28 57 28 l90 0 0 -395z m290 0 l0 -394 35
-7 c20 -3 35 -12 35 -20 0 -11 -24 -14 -120 -14 -96 0 -120 3 -120 14 0 8 15
17 35 20 l35 7 -2 376 -3 377 -32 8 c-59 15 -35 28 52 28 l85 0 0 -395z m-645
97 c53 -37 95 -120 102 -200 l6 -62 -157 0 -156 0 0 -43 c0 -108 57 -207 120
-207 61 0 131 58 145 120 4 16 13 30 21 30 20 0 17 -19 -12 -78 -34 -68 -88
-102 -163 -102 -92 0 -158 47 -203 145 -32 72 -32 218 0 290 62 135 191 182
297 107z"/>
<path d="M6023 2078 c-25 -27 -53 -117 -53 -170 l0 -38 99 0 100 0 -5 38 c-12
83 -28 135 -51 163 -30 35 -62 37 -90 7z"/>
<path d="M1913 2567 c-106 -182 -200 -350 -210 -372 -29 -64 -26 -313 5 -420
101 -348 333 -578 677 -672 l100 -28 808 -3 807 -3 0 916 0 915 -997 0 -998 0
-192 -333z"/>
</g>
</svg>
